<svg xmlns="http://www.w3.org/2000/svg" xmlns:xlink="http://www.w3.org/1999/xlink" preserveAspectRatio="xMidYMid" width="49" height="47" viewBox="0 0 49 47">
  <defs>
    <style>
      .cls-1 {
        fill: #e0f5f7;
      }

      .cls-1, .cls-2 {
        fill-rule: evenodd;
      }

      .cls-2 {
        fill: #85d6de;
      }
    </style>
  </defs>
  <g>
    <path d="M5.000,9.000 L5.000,46.000 L49.000,46.000 L49.000,9.000 L5.000,9.000 ZM35.916,18.000 L17.916,18.000 C16.262,18.000 14.916,16.654 14.916,15.000 C14.916,13.346 16.262,12.000 17.916,12.000 L35.916,12.000 C37.571,12.000 38.916,13.346 38.916,15.000 C38.916,16.654 37.571,18.000 35.916,18.000 Z" class="cls-1"/>
    <path d="M45.988,47.000 L2.012,47.000 C0.901,47.000 -0.000,46.099 -0.000,44.988 L-0.000,8.012 C-0.000,6.901 0.901,6.000 2.012,6.000 L15.000,6.000 L15.000,8.000 L2.000,8.000 L2.000,45.000 L46.000,45.000 L46.000,8.000 L33.000,8.000 L33.000,6.000 L45.988,6.000 C47.099,6.000 48.000,6.901 48.000,8.012 L48.000,44.988 C48.000,46.099 47.099,47.000 45.988,47.000 ZM21.000,24.000 L40.000,24.000 C40.552,24.000 41.000,24.448 41.000,25.000 C41.000,25.552 40.552,26.000 40.000,26.000 L21.000,26.000 C20.448,26.000 20.000,25.552 20.000,25.000 C20.000,24.448 20.448,24.000 21.000,24.000 ZM21.000,32.000 L33.000,32.000 C33.552,32.000 34.000,32.448 34.000,33.000 C34.000,33.552 33.552,34.000 33.000,34.000 L21.000,34.000 C20.448,34.000 20.000,33.552 20.000,33.000 C20.000,32.448 20.448,32.000 21.000,32.000 ZM21.000,28.000 L33.000,28.000 C33.552,28.000 34.000,28.448 34.000,29.000 C34.000,29.552 33.552,30.000 33.000,30.000 L21.000,30.000 C20.448,30.000 20.000,29.552 20.000,29.000 C20.000,28.448 20.448,28.000 21.000,28.000 ZM11.279,30.961 C12.545,30.961 13.617,30.162 14.041,29.045 C15.298,29.912 16.125,31.000 16.125,33.000 C16.125,36.000 6.510,36.000 6.510,33.000 C6.510,31.000 7.312,29.967 8.532,29.095 C8.969,30.186 10.031,30.961 11.279,30.961 ZM11.279,23.006 C12.915,23.006 14.241,24.332 14.241,25.968 C14.241,27.604 12.915,28.930 11.279,28.930 C9.643,28.930 8.317,27.604 8.317,25.968 C8.317,24.332 9.643,23.006 11.279,23.006 ZM35.916,14.000 C35.916,15.654 34.571,17.000 32.916,17.000 L14.916,17.000 C13.262,17.000 11.916,15.654 11.916,14.000 C11.916,12.346 13.262,11.000 14.916,11.000 L18.000,11.000 L18.000,2.000 C18.000,0.900 18.900,-0.000 20.000,-0.000 L28.000,-0.000 C29.100,-0.000 30.000,0.900 30.000,2.000 L30.000,11.000 L32.916,11.000 C34.571,11.000 35.916,12.346 35.916,14.000 ZM32.916,13.000 L30.000,13.000 L30.000,14.000 L18.000,14.000 L18.000,13.000 L14.916,13.000 C14.365,13.000 13.916,13.449 13.916,14.000 C13.916,14.551 14.365,15.000 14.916,15.000 L32.916,15.000 C33.468,15.000 33.916,14.551 33.916,14.000 C33.916,13.449 33.468,13.000 32.916,13.000 Z" class="cls-2"/>
  </g>
</svg>
