<svg xmlns="http://www.w3.org/2000/svg" xmlns:xlink="http://www.w3.org/1999/xlink" preserveAspectRatio="xMidYMid" width="30" height="40" viewBox="0 0 30 40">
  <defs>
    <style>
      .cls-1 {
        fill: #e0f5f7;
      }

      .cls-1, .cls-2 {
        fill-rule: evenodd;
      }

      .cls-2 {
        fill: #85d6de;
      }
    </style>
  </defs>
  <g>
    <path d="M25.997,7.972 L22.000,17.118 L22.000,37.985 L30.000,37.985 L30.000,17.118 L25.997,7.972 Z" class="cls-1"/>
    <path d="M27.968,40.000 L19.977,40.000 C18.878,40.000 17.979,39.100 17.979,38.000 L17.979,16.000 L18.091,16.000 C18.100,15.974 18.097,15.947 18.109,15.921 L23.062,4.775 C23.224,4.417 23.580,4.000 23.972,4.000 L23.974,4.000 C24.366,4.000 24.722,4.419 24.883,4.778 L29.774,15.768 C29.807,15.842 29.812,15.922 29.826,16.000 L29.966,16.000 L29.966,38.000 C29.966,39.100 29.067,40.000 27.968,40.000 ZM22.973,38.000 L24.971,38.000 L24.971,18.000 L22.973,18.000 L22.973,38.000 ZM19.977,38.000 L20.975,38.000 L20.975,18.000 L19.977,18.000 L19.977,38.000 ZM23.969,7.796 L20.263,16.000 L27.656,16.000 L23.969,7.796 ZM27.968,18.000 L26.969,18.000 L26.969,38.000 L27.968,38.000 L27.968,18.000 ZM23.954,8.663 L25.910,13.021 L21.972,13.046 L23.954,8.663 ZM22.973,2.000 L0.997,2.000 C0.446,2.000 -0.002,1.552 -0.002,1.000 C-0.002,0.448 0.446,-0.000 0.997,-0.000 L22.973,-0.000 C23.525,-0.000 23.972,0.448 23.972,1.000 C23.972,1.552 23.525,2.000 22.973,2.000 ZM0.997,4.000 L18.978,4.000 C19.529,4.000 19.977,4.448 19.977,5.000 C19.977,5.552 19.529,6.000 18.978,6.000 L0.997,6.000 C0.446,6.000 -0.002,5.552 -0.002,5.000 C-0.002,4.448 0.446,4.000 0.997,4.000 ZM0.997,8.000 L14.982,8.000 C15.534,8.000 15.981,8.448 15.981,9.000 C15.981,9.552 15.534,10.000 14.982,10.000 L0.997,10.000 C0.446,10.000 -0.002,9.552 -0.002,9.000 C-0.002,8.448 0.446,8.000 0.997,8.000 ZM0.997,12.000 L14.982,12.000 C15.534,12.000 15.981,12.448 15.981,13.000 C15.981,13.552 15.534,14.000 14.982,14.000 L0.997,14.000 C0.446,14.000 -0.002,13.552 -0.002,13.000 C-0.002,12.448 0.446,12.000 0.997,12.000 Z" class="cls-2"/>
  </g>
</svg>
