<svg xmlns="http://www.w3.org/2000/svg" xmlns:xlink="http://www.w3.org/1999/xlink" preserveAspectRatio="xMidYMid" width="49" height="48" viewBox="0 0 49 48">
  <defs>
    <style>
      .cls-1 {
        fill: #e0f5f7;
      }

      .cls-1, .cls-2 {
        fill-rule: evenodd;
      }

      .cls-2 {
        fill: #85d6de;
      }
    </style>
  </defs>
  <g>
    <path d="M44.976,47.001 L16.882,47.001 L16.882,15.019 L48.990,15.019 L48.990,43.003 C48.990,45.211 47.193,47.001 44.976,47.001 ZM11.865,14.019 L11.865,35.810 L4.997,10.277 L36.010,2.000 L38.706,12.021 L13.872,12.021 C12.768,12.021 11.865,12.920 11.865,14.019 Z" class="cls-1"/>
    <path d="M42.015,47.999 L40.023,47.999 L14.122,47.999 C13.026,47.999 12.130,47.102 12.130,46.005 L12.130,42.830 L10.687,43.217 C9.629,43.501 8.803,42.277 8.519,41.218 L0.269,10.391 C-0.015,9.332 0.347,8.822 1.405,8.538 L32.197,0.278 C33.255,-0.006 34.626,0.040 34.909,1.099 L37.853,12.097 L46.000,12.097 C47.096,12.097 47.992,12.994 47.992,14.091 L47.992,40.021 L47.992,42.016 C47.992,45.315 45.311,47.999 42.015,47.999 ZM33.114,2.097 L2.322,10.357 L10.573,41.183 L12.130,40.765 L12.130,14.091 C12.130,12.994 13.026,12.097 14.122,12.097 L35.790,12.097 L33.114,2.097 ZM46.000,14.091 L14.122,14.091 L14.122,46.005 L40.023,46.005 L40.023,42.182 C40.023,41.085 41.003,40.021 42.098,40.021 L46.000,40.021 L46.000,14.091 ZM42.015,42.016 L42.015,46.005 C44.216,46.005 46.000,44.219 46.000,42.016 L42.015,42.016 ZM41.019,23.067 L20.099,23.067 C19.549,23.067 19.103,22.620 19.103,22.070 C19.103,21.519 19.549,21.072 20.099,21.072 L41.019,21.072 C41.570,21.072 42.015,21.519 42.015,22.070 C42.015,22.620 41.570,23.067 41.019,23.067 ZM41.019,20.075 L20.099,20.075 C19.549,20.075 19.103,19.628 19.103,19.078 C19.103,18.527 19.549,18.080 20.099,18.080 L41.019,18.080 C41.570,18.080 42.015,18.527 42.015,19.078 C42.015,19.628 41.570,20.075 41.019,20.075 ZM20.099,24.064 L38.031,24.064 C38.581,24.064 39.027,24.511 39.027,25.062 C39.027,25.612 38.581,26.059 38.031,26.059 L20.099,26.059 C19.549,26.059 19.103,25.612 19.103,25.062 C19.103,24.511 19.549,24.064 20.099,24.064 ZM20.099,27.056 L33.050,27.056 C33.600,27.056 34.046,27.503 34.046,28.053 C34.046,28.604 33.600,29.051 33.050,29.051 L20.099,29.051 C19.549,29.051 19.103,28.604 19.103,28.053 C19.103,27.503 19.549,27.056 20.099,27.056 ZM24.084,32.043 C26.285,32.043 28.069,33.829 28.069,36.032 C28.069,38.235 26.285,40.021 24.084,40.021 C21.883,40.021 20.099,38.235 20.099,36.032 C20.099,33.829 21.883,32.043 24.084,32.043 ZM24.084,38.026 C25.183,38.026 26.076,37.132 26.076,36.032 C26.076,34.932 25.183,34.037 24.084,34.037 C22.985,34.037 22.092,34.932 22.092,36.032 C22.092,37.132 22.985,38.026 24.084,38.026 ZM31.991,31.980 C33.126,31.980 34.046,32.901 34.046,34.037 C34.046,35.173 33.126,36.094 31.991,36.094 C30.856,36.094 29.937,35.173 29.937,34.037 C29.937,32.901 30.856,31.980 31.991,31.980 ZM31.991,35.097 C32.575,35.097 33.050,34.622 33.050,34.037 C33.050,33.453 32.575,32.978 31.991,32.978 C31.408,32.978 30.933,33.453 30.933,34.037 C30.933,34.622 31.408,35.097 31.991,35.097 Z" class="cls-2"/>
  </g>
</svg>
