<svg xmlns="http://www.w3.org/2000/svg" xmlns:xlink="http://www.w3.org/1999/xlink" preserveAspectRatio="xMidYMid" width="50" height="49" viewBox="0 0 50 49">
  <defs>
    <style>
      .cls-1 {
        fill: #e0f5f7;
      }

      .cls-1, .cls-2 {
        fill-rule: evenodd;
      }

      .cls-2 {
        fill: #85d6de;
      }
    </style>
  </defs>
  <g>
    <path d="M46.058,30.000 L29.049,13.000 L12.040,30.000 L12.040,48.000 L24.047,48.000 L24.047,34.000 L34.052,34.000 L34.058,47.989 L46.058,48.000 L46.058,30.000 Z" class="cls-1"/>
    <path d="M49.642,25.353 C49.449,25.547 49.195,25.644 48.941,25.644 C48.690,25.644 48.439,25.549 48.246,25.359 L25.019,2.464 L1.791,25.359 C1.599,25.549 1.348,25.644 1.097,25.644 C0.843,25.644 0.589,25.547 0.396,25.353 C0.013,24.967 0.016,24.345 0.403,23.963 L24.325,0.383 C24.371,0.338 24.428,0.316 24.480,0.281 C24.536,0.244 24.587,0.196 24.648,0.171 C24.706,0.148 24.769,0.147 24.830,0.135 C24.893,0.122 24.954,0.099 25.019,0.099 C25.083,0.099 25.144,0.122 25.207,0.135 C25.268,0.147 25.331,0.148 25.389,0.171 C25.450,0.196 25.501,0.243 25.556,0.280 C25.609,0.315 25.667,0.337 25.713,0.383 L49.635,23.963 C50.022,24.345 50.025,24.967 49.642,25.353 ZM25.119,8.943 L25.125,8.938 L44.057,28.000 L44.057,47.000 C44.057,48.104 43.289,48.994 42.180,48.994 L30.056,48.994 L28.041,48.994 L28.041,34.946 L21.996,34.946 L21.996,48.994 L19.982,48.994 L7.857,48.994 C6.749,48.994 6.037,48.104 6.037,47.000 L6.037,28.000 L25.113,8.938 L25.119,8.943 ZM8.038,29.000 L8.038,47.000 L20.045,47.000 L20.045,33.000 L30.050,33.000 L30.056,46.989 L42.056,47.000 L42.056,29.000 L25.047,12.000 L8.038,29.000 ZM38.935,31.644 C38.685,31.644 38.434,31.549 38.241,31.359 L32.329,25.779 C31.942,25.398 31.939,24.776 32.322,24.390 C32.705,24.004 33.330,24.001 33.717,24.383 L39.630,29.963 C40.017,30.345 40.020,30.967 39.636,31.353 C39.444,31.547 39.190,31.644 38.935,31.644 Z" class="cls-2"/>
  </g>
</svg>
