<svg xmlns="http://www.w3.org/2000/svg" xmlns:xlink="http://www.w3.org/1999/xlink" preserveAspectRatio="xMidYMid" width="49" height="45" viewBox="0 0 49 45">
  <defs>
    <style>
      .cls-1 {
        fill: #e0f5f7;
      }

      .cls-1, .cls-2 {
        fill-rule: evenodd;
      }

      .cls-2 {
        fill: #85d6de;
      }
    </style>
  </defs>
  <g>
    <path d="M48.997,12.000 L49.000,12.003 L48.997,44.000 L5.000,43.997 L5.003,12.000 L48.997,12.000 " class="cls-1"/>
    <path d="M45.997,45.000 L2.003,45.000 C0.901,45.000 -0.000,44.099 -0.000,42.997 L-0.000,11.003 C-0.000,9.901 0.901,9.000 2.003,9.000 L2.000,9.000 L2.000,8.000 C2.000,6.900 2.900,6.000 4.000,6.000 L6.000,6.000 L6.000,5.000 C6.000,3.900 6.837,3.000 7.937,3.000 L9.000,3.000 L9.000,2.000 C9.000,0.900 9.900,-0.000 11.000,-0.000 L37.000,-0.000 C38.100,-0.000 39.000,0.900 39.000,2.000 L39.000,3.000 L39.938,3.000 C41.037,3.000 42.000,3.900 42.000,5.000 L42.000,6.000 L44.000,6.000 C45.100,6.000 46.000,6.900 46.000,8.000 L46.000,9.000 L45.997,9.000 C47.099,9.000 48.000,9.901 48.000,11.003 L48.000,42.997 C48.000,44.099 47.099,45.000 45.997,45.000 ZM37.000,2.000 L11.000,2.000 L11.000,3.000 L37.000,3.000 L37.000,2.000 ZM40.000,5.000 L8.000,5.000 L8.000,6.000 L40.000,6.000 L40.000,5.000 ZM44.000,8.000 L4.000,8.000 L4.000,9.000 L44.000,9.000 L44.000,8.000 ZM45.997,11.000 L2.003,11.000 L2.000,42.997 L45.997,43.000 L46.000,11.003 L45.997,11.000 ZM12.000,33.000 L16.958,36.000 L27.031,24.031 L42.000,39.000 L6.000,39.000 L12.000,33.000 ZM41.000,21.000 L30.000,21.000 C29.448,21.000 29.000,20.552 29.000,20.000 C29.000,19.448 29.448,19.000 30.000,19.000 L41.000,19.000 C41.552,19.000 42.000,19.448 42.000,20.000 C42.000,20.552 41.552,21.000 41.000,21.000 ZM41.000,17.000 L35.000,17.000 C34.448,17.000 34.000,16.552 34.000,16.000 C34.000,15.448 34.448,15.000 35.000,15.000 L41.000,15.000 C41.552,15.000 42.000,15.448 42.000,16.000 C42.000,16.552 41.552,17.000 41.000,17.000 ZM11.000,25.000 C8.238,25.000 6.000,22.762 6.000,20.000 C6.000,17.239 8.238,15.000 11.000,15.000 C13.761,15.000 16.000,17.239 16.000,20.000 C16.000,22.762 13.761,25.000 11.000,25.000 Z" class="cls-2"/>
  </g>
</svg>
