<svg xmlns="http://www.w3.org/2000/svg" xmlns:xlink="http://www.w3.org/1999/xlink" preserveAspectRatio="xMidYMid" width="49" height="48" viewBox="0 0 49 48">
  <defs>
    <style>
      .cls-1 {
        fill: #e0f5f7;
      }

      .cls-1, .cls-2 {
        fill-rule: evenodd;
      }

      .cls-2 {
        fill: #85d6de;
      }
    </style>
  </defs>
  <g>
    <path d="M45.543,21.000 C45.077,18.715 44.215,16.583 43.016,14.682 L45.385,12.272 L39.728,6.615 L37.366,9.019 C35.486,7.825 33.348,6.943 31.000,6.454 L31.000,3.000 L23.000,3.000 L23.000,6.432 C20.737,6.919 18.624,7.810 16.738,9.024 C16.727,9.032 16.722,9.046 16.711,9.054 L14.272,6.615 L8.615,12.272 L11.061,14.676 C9.825,16.578 8.919,18.712 8.427,21.000 L5.000,21.000 L5.000,29.000 L8.427,29.000 C8.924,31.297 9.840,33.436 11.087,35.340 L8.615,37.728 L14.272,43.385 L16.777,40.963 C18.653,42.161 20.753,43.041 23.000,43.522 L23.000,47.000 L31.000,47.000 L31.000,43.538 C33.293,43.068 35.429,42.198 37.332,40.988 L39.728,43.385 L45.385,37.728 L42.975,35.318 C44.151,33.449 45.022,31.329 45.506,29.000 L49.000,29.000 L49.000,21.000 L45.543,21.000 ZM27.000,31.000 C23.686,31.000 21.000,28.314 21.000,25.000 C21.000,21.686 23.686,19.000 27.000,19.000 C30.314,19.000 33.000,21.686 33.000,25.000 C33.000,28.314 30.314,31.000 27.000,31.000 Z" class="cls-1"/>
    <path d="M47.000,30.000 L44.061,30.000 C43.651,31.391 43.115,32.714 42.456,33.953 L44.506,36.021 C44.895,36.410 44.895,37.046 44.506,37.435 L37.435,44.506 C37.241,44.701 36.984,44.798 36.728,44.798 C36.472,44.798 36.215,44.701 36.021,44.506 L33.992,42.478 C32.736,43.150 31.397,43.686 30.000,44.093 L30.000,47.000 C30.000,47.550 29.550,48.000 29.000,48.000 L19.000,48.000 C18.450,48.000 18.000,47.550 18.000,47.000 L18.000,44.066 C16.620,43.653 15.297,43.112 14.052,42.440 L11.979,44.506 C11.785,44.701 11.528,44.798 11.272,44.798 C11.016,44.798 10.759,44.701 10.565,44.506 L3.494,37.435 C3.105,37.046 3.105,36.410 3.494,36.021 L5.555,33.960 C4.874,32.709 4.306,31.389 3.888,30.000 L1.000,30.000 C0.450,30.000 -0.000,29.550 -0.000,29.000 L-0.000,19.000 C-0.000,18.450 0.450,18.000 1.000,18.000 L3.899,18.000 C4.315,16.611 4.863,15.279 5.542,14.027 L3.494,11.979 C3.105,11.590 3.105,10.954 3.494,10.565 L10.565,3.494 C10.759,3.299 11.016,3.202 11.272,3.202 C11.528,3.202 11.785,3.299 11.979,3.494 L14.035,5.550 C15.288,4.870 16.610,4.303 18.000,3.886 L18.000,1.000 C18.000,0.450 18.450,0.000 19.000,0.000 L29.000,0.000 C29.550,0.000 30.000,0.450 30.000,1.000 L30.000,3.897 C31.408,4.309 32.748,4.848 33.999,5.516 L36.021,3.494 C36.215,3.299 36.472,3.202 36.728,3.202 C36.984,3.202 37.241,3.299 37.435,3.494 L44.506,10.565 C44.895,10.954 44.895,11.590 44.506,11.979 L42.480,14.005 C43.151,15.263 43.687,16.603 44.094,18.000 L47.000,18.000 C47.550,18.000 48.000,18.450 48.000,19.000 L48.000,29.000 C48.000,29.550 47.550,30.000 47.000,30.000 ZM46.000,20.000 L42.543,20.000 C42.077,17.715 41.215,15.583 40.016,13.682 L42.385,11.272 L36.728,5.615 L34.366,8.019 C32.486,6.825 30.348,5.943 28.000,5.453 L28.000,2.000 L20.000,2.000 L20.000,5.432 C17.737,5.919 15.624,6.810 13.738,8.024 C13.727,8.032 13.722,8.046 13.711,8.054 L11.272,5.615 L5.615,11.272 L8.061,13.676 C6.825,15.577 5.919,17.712 5.427,20.000 L2.000,20.000 L2.000,28.000 L5.427,28.000 C5.924,30.297 6.840,32.437 8.086,34.340 L5.615,36.728 L11.272,42.385 L13.777,39.963 C15.653,41.161 17.753,42.041 20.000,42.522 L20.000,46.000 L28.000,46.000 L28.000,42.538 C30.293,42.068 32.429,41.198 34.332,39.989 L36.728,42.385 L42.385,36.728 L39.974,34.318 C41.151,32.449 42.022,30.329 42.506,28.000 L46.000,28.000 L46.000,20.000 ZM24.000,30.000 C20.686,30.000 18.000,27.314 18.000,24.000 C18.000,20.686 20.686,18.000 24.000,18.000 C27.314,18.000 30.000,20.686 30.000,24.000 C30.000,27.314 27.314,30.000 24.000,30.000 ZM24.000,20.000 C21.794,20.000 20.000,21.794 20.000,24.000 C20.000,26.206 21.794,28.000 24.000,28.000 C26.206,28.000 28.000,26.206 28.000,24.000 C28.000,21.794 26.206,20.000 24.000,20.000 ZM18.000,13.000 C15.243,13.000 13.000,15.243 13.000,18.000 C13.000,18.552 12.552,19.000 12.000,19.000 C11.448,19.000 11.000,18.552 11.000,18.000 C11.000,14.140 14.140,11.000 18.000,11.000 C18.552,11.000 19.000,11.448 19.000,12.000 C19.000,12.552 18.552,13.000 18.000,13.000 Z" class="cls-2"/>
  </g>
</svg>
