<svg xmlns="http://www.w3.org/2000/svg" xmlns:xlink="http://www.w3.org/1999/xlink" preserveAspectRatio="xMidYMid" width="41" height="36" viewBox="0 0 41 36">
  <defs>
    <style>
      .cls-1 {
        fill: #e0f5f7;
      }

      .cls-1, .cls-2 {
        fill-rule: evenodd;
      }

      .cls-2 {
        fill: #85d6de;
      }
    </style>
  </defs>
  <g>
    <path d="M19.305,29.000 L33.739,29.000 L41.000,10.000 L11.994,10.000 L19.305,29.000 Z" class="cls-1"/>
    <path d="M40.882,6.470 L35.929,19.369 C35.911,19.427 35.893,19.481 35.866,19.533 L32.838,27.420 C32.690,27.806 32.319,28.061 31.905,28.061 L17.521,28.061 L18.679,31.053 L29.953,31.053 C30.483,30.516 31.217,30.180 32.031,30.180 C33.637,30.180 34.946,31.485 34.946,33.090 C34.946,34.695 33.637,36.000 32.031,36.000 C30.423,36.000 29.115,34.695 29.115,33.090 C29.115,33.076 29.118,33.063 29.119,33.049 L18.947,33.049 C18.947,33.063 18.951,33.076 18.951,33.090 C18.951,34.695 17.643,36.000 16.036,36.000 C14.428,36.000 13.120,34.695 13.120,33.090 C13.120,31.485 14.428,30.180 16.036,30.180 C16.094,30.180 16.148,30.194 16.205,30.198 L15.133,27.423 C15.132,27.423 15.132,27.422 15.132,27.422 L7.551,7.814 L5.316,2.122 L0.999,2.122 C0.447,2.122 -0.001,1.676 -0.001,1.125 C-0.001,0.574 0.447,0.127 0.999,0.127 L5.997,0.127 C6.002,0.127 6.005,0.130 6.009,0.130 C6.096,0.131 6.177,0.157 6.260,0.180 C6.304,0.192 6.352,0.192 6.393,0.210 C6.437,0.229 6.471,0.265 6.512,0.290 C6.580,0.332 6.652,0.368 6.708,0.425 C6.731,0.448 6.742,0.480 6.762,0.505 C6.824,0.582 6.884,0.659 6.922,0.751 C6.923,0.755 6.926,0.757 6.928,0.761 L8.638,5.115 L39.949,5.115 C40.278,5.115 40.586,5.277 40.773,5.548 C40.959,5.818 41.000,6.163 40.882,6.470 ZM32.031,34.005 C32.535,34.005 32.946,33.595 32.946,33.090 C32.946,32.586 32.535,32.176 32.031,32.176 C31.525,32.176 31.114,32.586 31.114,33.090 C31.114,33.595 31.525,34.005 32.031,34.005 ZM16.036,32.176 C15.530,32.176 15.119,32.586 15.119,33.090 C15.119,33.595 15.530,34.005 16.036,34.005 C16.541,34.005 16.952,33.595 16.952,33.090 C16.952,32.586 16.541,32.176 16.036,32.176 ZM16.591,25.655 C16.591,25.655 16.591,25.655 16.591,25.656 L16.750,26.065 L31.217,26.065 L31.983,24.070 L15.978,24.070 L16.591,25.655 ZM15.207,22.075 L32.749,22.075 L33.516,20.080 L14.436,20.080 L15.207,22.075 ZM13.664,18.084 L34.282,18.084 L35.048,16.089 L12.893,16.089 L13.664,18.084 ZM12.122,14.094 L35.814,14.094 L36.580,12.099 L11.350,12.099 L12.122,14.094 ZM9.422,7.111 L10.579,10.103 L37.346,10.103 L38.495,7.111 L9.422,7.111 ZM6.915,16.646 C7.432,16.459 8.005,16.730 8.193,17.249 L11.874,27.516 C12.061,28.035 11.789,28.606 11.270,28.792 C11.159,28.832 11.045,28.851 10.933,28.851 C10.523,28.851 10.139,28.596 9.992,28.189 L6.311,17.922 C6.124,17.403 6.396,16.832 6.915,16.646 Z" class="cls-2"/>
  </g>
</svg>
