<svg xmlns="http://www.w3.org/2000/svg" xmlns:xlink="http://www.w3.org/1999/xlink" preserveAspectRatio="xMidYMid" width="49" height="48" viewBox="0 0 49 48">
  <defs>
    <style>
      .cls-1 {
        fill: #e0f5f7;
      }

      .cls-1, .cls-2 {
        fill-rule: evenodd;
      }

      .cls-2 {
        fill: #85d6de;
      }
    </style>
  </defs>
  <g>
    <path d="M40.998,48.000 L40.998,40.080 L48.976,40.080 L48.976,48.000 L40.998,48.000 ZM40.998,22.120 L48.976,22.120 L48.976,30.040 L40.998,30.040 L40.998,22.120 ZM40.998,4.160 L48.976,4.160 L48.976,12.079 L40.998,12.079 L40.998,4.160 ZM22.992,39.498 L30.969,39.498 L30.969,47.418 L22.992,47.418 L22.992,39.498 ZM22.992,21.538 L30.969,21.538 L30.969,29.458 L22.992,29.458 L22.992,21.538 ZM22.992,3.577 L30.969,3.577 L30.969,11.497 L22.992,11.497 L22.992,3.577 ZM4.986,38.916 L12.963,38.916 L12.963,46.836 L4.986,46.836 L4.986,38.916 ZM4.986,20.956 L12.963,20.956 L12.963,28.876 L4.986,28.876 L4.986,20.956 ZM4.986,2.995 L12.963,2.995 L12.963,10.915 L4.986,10.915 L4.986,2.995 Z" class="cls-1"/>
    <path d="M46.000,48.000 L38.062,48.000 C36.962,48.000 36.063,47.100 36.063,46.000 L36.063,38.062 C36.063,36.962 36.962,36.063 38.062,36.063 L46.000,36.063 C47.100,36.063 48.000,36.962 48.000,38.062 L48.000,46.000 C48.000,47.100 47.100,48.000 46.000,48.000 ZM46.000,38.062 L38.062,38.062 L38.062,46.000 L46.000,46.000 L46.000,38.062 ZM46.000,29.969 L38.062,29.969 C36.962,29.969 36.063,29.069 36.063,27.969 L36.063,20.031 C36.063,18.931 36.962,18.031 38.062,18.031 L46.000,18.031 C47.100,18.031 48.000,18.931 48.000,20.031 L48.000,27.969 C48.000,29.069 47.100,29.969 46.000,29.969 ZM46.000,20.031 L38.062,20.031 L38.062,27.969 L46.000,27.969 L46.000,20.031 ZM46.000,11.937 L38.062,11.937 C36.962,11.937 36.063,11.037 36.063,9.937 L36.063,2.000 C36.063,0.900 36.962,-0.000 38.062,-0.000 L46.000,-0.000 C47.100,-0.000 48.000,0.900 48.000,2.000 L48.000,9.937 C48.000,11.037 47.100,11.937 46.000,11.937 ZM46.000,2.000 L38.062,2.000 L38.062,9.937 L46.000,9.937 L46.000,2.000 ZM27.969,48.000 L20.031,48.000 C18.931,48.000 18.031,47.100 18.031,46.000 L18.031,38.062 C18.031,36.962 18.931,36.063 20.031,36.063 L27.969,36.063 C29.069,36.063 29.969,36.962 29.969,38.062 L29.969,46.000 C29.969,47.100 29.069,48.000 27.969,48.000 ZM27.969,38.062 L20.031,38.062 L20.031,46.000 L27.969,46.000 L27.969,38.062 ZM27.969,29.969 L20.031,29.969 C18.931,29.969 18.031,29.069 18.031,27.969 L18.031,20.031 C18.031,18.931 18.931,18.031 20.031,18.031 L27.969,18.031 C29.069,18.031 29.969,18.931 29.969,20.031 L29.969,27.969 C29.969,29.069 29.069,29.969 27.969,29.969 ZM27.969,20.031 L20.031,20.031 L20.031,27.969 L27.969,27.969 L27.969,20.031 ZM27.969,11.937 L20.031,11.937 C18.931,11.937 18.031,11.037 18.031,9.937 L18.031,2.000 C18.031,0.900 18.931,-0.000 20.031,-0.000 L27.969,-0.000 C29.069,-0.000 29.969,0.900 29.969,2.000 L29.969,9.937 C29.969,11.037 29.069,11.937 27.969,11.937 ZM27.969,2.000 L20.031,2.000 L20.031,9.937 L27.969,9.937 L27.969,2.000 ZM9.937,48.000 L2.000,48.000 C0.900,48.000 -0.000,47.100 -0.000,46.000 L-0.000,38.062 C-0.000,36.962 0.900,36.063 2.000,36.063 L9.937,36.063 C11.038,36.063 11.937,36.962 11.937,38.062 L11.937,46.000 C11.937,47.100 11.038,48.000 9.937,48.000 ZM9.937,38.062 L2.000,38.062 L2.000,46.000 L9.937,46.000 L9.937,38.062 ZM9.937,29.969 L2.000,29.969 C0.900,29.969 -0.000,29.069 -0.000,27.969 L-0.000,20.031 C-0.000,18.931 0.900,18.031 2.000,18.031 L9.937,18.031 C11.038,18.031 11.937,18.931 11.937,20.031 L11.937,27.969 C11.937,29.069 11.038,29.969 9.937,29.969 ZM9.937,20.031 L2.000,20.031 L2.000,27.969 L9.937,27.969 L9.937,20.031 ZM9.937,11.937 L2.000,11.937 C0.900,11.937 -0.000,11.037 -0.000,9.937 L-0.000,2.000 C-0.000,0.900 0.900,-0.000 2.000,-0.000 L9.937,-0.000 C11.038,-0.000 11.937,0.900 11.937,2.000 L11.937,9.937 C11.937,11.037 11.038,11.937 9.937,11.937 ZM9.937,2.000 L2.000,2.000 L2.000,9.937 L9.937,9.937 L9.937,2.000 Z" class="cls-2"/>
  </g>
</svg>
