<svg id="confetti" xmlns="http://www.w3.org/2000/svg" viewBox="0 0 59.6 37.9"><style>.st0{fill:#FDD896;stroke:#94DCE4;stroke-width:0.5203;stroke-linecap:round;stroke-linejoin:round;stroke-miterlimit:10;} .st1{opacity:0.8;} .st2{fill:#FDD896;stroke:#94DCE4;stroke-width:1.2301;stroke-linecap:round;stroke-linejoin:round;stroke-miterlimit:10;} .st3{opacity:0.4;} .st4{fill:#94DCE4;stroke:#FDD896;stroke-width:1.2301;stroke-linecap:round;stroke-linejoin:round;stroke-miterlimit:10;} .st5{fill:none;stroke:#94DCE4;stroke-width:1.2301;stroke-linecap:round;stroke-linejoin:round;stroke-miterlimit:10;}</style><g id="plus_25_"><path class="st0" d="M27.1 12.1l.3 1.4M26.5 12.9l1.5-.2"/></g><g id="plus_33_" class="st1"><path class="st0" d="M46.5 35.9l.3 1.5M45.9 36.8l1.5-.3"/></g><g id="plus_30_"><path class="st0" d="M11.3 32.5l.2 1.5M10.7 33.4l1.4-.3"/></g><g id="plus_29_"><path class="st0" d="M52.1 20.1l.2 1.4M51.5 20.9l1.4-.2"/></g><g id="plus_26_"><path class="st2" d="M35.5 1.1l.6 3.5M34.1 3.1l3.4-.5"/></g><g id="plus_28_" class="st3"><path class="st2" d="M11.6 23.4l.6 3.5M10.2 25.4l3.4-.5"/></g><g id="plus_31_" class="st3"><path class="st2" d="M7.2 6.8l.6 3.5M5.8 8.8l3.4-.5"/></g><g id="plus_1_" class="st3"><path class="st2" d="M56 9.8l.6 3.5M54.6 11.8l3.4-.5"/></g><path class="st2" d="M47.7 29.5l3-.9"/><path class="st4" d="M54.4 36.8l4.5.1M17.3 11.5l-2.2-3.8"/><path class="st5" d="M35.4 16.8l1-2.7"/><path class="st4" d="M44.4 16.3l4-4.4M3.5 35.3l-2.6-.7"/><path class="st5" d="M3.7 22l-2.3-1.4"/></svg>