<?xml version="1.0" encoding="utf-8"?>
<!-- Generator: Adobe Illustrator 19.0.0, SVG Export Plug-In . SVG Version: 6.00 Build 0)  -->
<svg version="1.1" id="Layer_1" xmlns="http://www.w3.org/2000/svg" xmlns:xlink="http://www.w3.org/1999/xlink" x="0px" y="0px"
	 viewBox="0 0 206.1 27" style="enable-background:new 0 0 206.1 27;" xml:space="preserve">
<style type="text/css">
	.st0{fill:#FED37F;}
	.st1{fill:#8ACFD9;}
</style>
<circle id="XMLID_6_" class="st0" cx="3.1" cy="23.5" r="3.1"/>
<circle id="XMLID_7_" class="st0" cx="23" cy="3.6" r="3.1"/>
<circle id="XMLID_9_" class="st1" cx="43" cy="3.6" r="3.1"/>
<circle id="XMLID_10_" class="st0" cx="63" cy="3.6" r="3.1"/>
<circle id="XMLID_11_" class="st0" cx="83" cy="3.6" r="3.1"/>
<circle id="XMLID_12_" class="st1" cx="103.1" cy="3.6" r="3.1"/>
<circle id="XMLID_13_" class="st0" cx="123" cy="3.6" r="3.1"/>
<circle id="XMLID_14_" class="st0" cx="143" cy="3.6" r="3.1"/>
<circle id="XMLID_15_" class="st0" cx="163" cy="3.6" r="3.1"/>
<circle id="XMLID_16_" class="st1" cx="183" cy="3.6" r="3.1"/>
<circle id="XMLID_17_" class="st0" cx="43" cy="23.6" r="3.1"/>
<circle id="XMLID_8_" class="st0" cx="23" cy="23.6" r="3.1"/>
<circle id="XMLID_18_" class="st1" cx="63" cy="23.6" r="3.1"/>
<circle id="XMLID_19_" class="st0" cx="83" cy="23.6" r="3.1"/>
<circle id="XMLID_20_" class="st0" cx="103" cy="23.6" r="3.1"/>
<circle id="XMLID_21_" class="st0" cx="123" cy="23.6" r="3.1"/>
<circle id="XMLID_22_" class="st0" cx="143" cy="23.6" r="3.1"/>
<circle id="XMLID_23_" class="st0" cx="163" cy="23.6" r="3.1"/>
<circle id="XMLID_24_" class="st0" cx="183" cy="23.6" r="3.1"/>
<circle id="XMLID_25_" class="st0" cx="203" cy="23.6" r="3.1"/>
</svg>
